<svg class="uch-psvg" viewBox="0 0 250.0 140.0" preserveAspectRatio="none" xmlns:xlink="http://www.w3.org/1999/xlink"><defs><linearGradient id="fill-id-tsuid_x8ifZ-ysC-ysptQP8M-3uAc_69" x1="0%" x2="0%" y1="0%" y2="100%"><stop offset="0%" stop-color="#d93025" stop-opacity="0.38"></stop><stop offset="13%" stop-color="#fad2cf" stop-opacity="0"></stop></linearGradient><clipPath id="range-id-tsuid_x8ifZ-ysC-ysptQP8M-3uAc_69"><rect height="100%" width="0" x="0" y="0"></rect></clipPath><defs><linearGradient id="chart-grad-_x8ifZ-ysC-ysptQP8M-3uAc_72" x1="0%" x2="0%" y1="0%" y2="100%"><stop offset="0%" stop-color="#d93025" stop-opacity="0.38"></stop><stop offset="13%" stop-color="#fad2cf" stop-opacity="0"></stop></linearGradient></defs><clipPath id="mask-_x8ifZ-ysC-ysptQP8M-3uAc_71"><rect height="150" width="250" x="0" y="-5"></rect></clipPath></defs><path d="M  0 52.86 L 8.06 54.67 L 16.13 55.25 L 24.19 54.11 L 32.26 30.17 L 40.32 28.84 L 48.39 36.28 L 56.45 44.14 L 64.52 60.97 L 72.58 60.97 L 80.65 61.11 L 88.71 52.67 L 96.77 45.51 L 104.84 39.66 L 112.9 70.73 L 120.97 66.34 L 129.03 66.98 L 137.1 67.67 L 145.16 43.61 L 153.23 56.74 L 161.29 43.48 L 169.35 33.43 L 177.42 25.01 L 185.48 23.91 L 193.55 38.64 L 201.61 63.21 L 209.68 48.49 L 217.74 45.33 L 225.81 57.81 L 233.87 57.79 L 241.94 57.76 L 250 105.73 L 2000 0 L 2000 1000 L -1000 1000" clip-path="url(#range-id-tsuid_x8ifZ-ysC-ysptQP8M-3uAc_69)" class="range-normal-line" style="stroke: none; stroke-width: 2; fill: url(&quot;#fill-id-tsuid_x8ifZ-ysC-ysptQP8M-3uAc_69&quot;);"></path><path clip-path="url(#mask-_x8ifZ-ysC-ysptQP8M-3uAc_71)" d="M 0 52.86 L 8.06 54.67 L 16.13 55.25 L 24.19 54.11 L 32.26 30.17 L 40.32 28.84 L 48.39 36.28 L 56.45 44.14 L 64.52 60.97 L 72.58 60.97 L 80.65 61.11 L 88.71 52.67 L 96.77 45.51 L 104.84 39.66 L 112.9 70.73 L 120.97 66.34 L 129.03 66.98 L 137.1 67.67 L 145.16 43.61 L 153.23 56.74 L 161.29 43.48 L 169.35 33.43 L 177.42 25.01 L 185.48 23.91 L 193.55 38.64 L 201.61 63.21 L 209.68 48.49 L 217.74 45.33 L 225.81 57.81 L 233.87 57.79 L 241.94 57.76 L 250 105.73 L 2000 0 L 2000 1000 L -1000 1000" stroke="#ea4335" style="fill:url(#chart-grad-_x8ifZ-ysC-ysptQP8M-3uAc_72)"></path></svg>
